<?xml version="1.0" encoding="UTF-8"?>
<svg xmlns="http://www.w3.org/2000/svg" viewBox="0 0 800 500" role="img" aria-labelledby="title desc">
  <title id="title">NEXT CITY 미래도시 전시 디자인 미리보기</title>
  <desc id="desc">glass 레이아웃, timeline 히어로, 미래도시 전시 홈페이지 디자인.</desc>
  <rect width="800" height="500" fill="hsl(212.8 26% 17%)"/>
  <rect x="22" y="22" width="756" height="456" fill="hsl(244.8 22% 82%)" stroke="hsl(42.8 28% 12%)" stroke-width="3"/>
  <rect x="22" y="22" width="756" height="48" fill="hsl(42.8 28% 12%)"/>
  <circle cx="48" cy="46" r="7" fill="hsl(330.8 60% 54%)"/>
  <text x="70" y="52" fill="hsl(244.8 22% 82%)" font-family="system-ui,sans-serif" font-size="14" font-weight="800">WORLD 099 · 미래도시 전시</text>
  <line x1="38" y1="122" x2="717" y2="122" stroke="hsl(42.8 28% 12%)" stroke-opacity=".34" stroke-width="3"/><line x1="72" y1="164" x2="686" y2="164" stroke="hsl(42.8 28% 12%)" stroke-opacity=".18" stroke-width="1"/><line x1="38" y1="206" x2="655" y2="206" stroke="hsl(42.8 28% 12%)" stroke-opacity=".34" stroke-width="1"/><line x1="72" y1="248" x2="624" y2="248" stroke="hsl(42.8 28% 12%)" stroke-opacity=".18" stroke-width="3"/><line x1="38" y1="290" x2="593" y2="290" stroke="hsl(42.8 28% 12%)" stroke-opacity=".34" stroke-width="1"/><line x1="72" y1="332" x2="562" y2="332" stroke="hsl(42.8 28% 12%)" stroke-opacity=".18" stroke-width="1"/><line x1="38" y1="374" x2="691" y2="374" stroke="hsl(42.8 28% 12%)" stroke-opacity=".34" stroke-width="3"/><line x1="72" y1="416" x2="660" y2="416" stroke="hsl(42.8 28% 12%)" stroke-opacity=".18" stroke-width="1"/><line x1="38" y1="458" x2="629" y2="458" stroke="hsl(42.8 28% 12%)" stroke-opacity=".34" stroke-width="1"/>
  <rect x="139" y="338" width="57" height="71" rx="0" fill="hsl(330.8 60% 54%)" opacity=".94"/><rect x="228" y="399" width="100" height="38" rx="0" fill="hsl(104.8 49% 57%)" opacity=".94"/><rect x="317" y="100" width="143" height="67" rx="0" fill="hsl(244.8 22% 82%)" opacity=".72"/><rect x="406" y="161" width="186" height="34" rx="0" fill="hsl(330.8 60% 54%)" opacity=".94"/><rect x="495" y="222" width="79" height="63" rx="0" fill="hsl(104.8 49% 57%)" opacity=".94"/><rect x="84" y="283" width="122" height="30" rx="0" fill="hsl(244.8 22% 82%)" opacity=".72"/><rect x="173" y="344" width="165" height="59" rx="0" fill="hsl(330.8 60% 54%)" opacity=".94"/><rect x="262" y="405" width="58" height="26" rx="0" fill="hsl(104.8 49% 57%)" opacity=".94"/>
  <circle cx="623" cy="205" r="78" fill="none" stroke="hsl(330.8 60% 54%)" stroke-width="18" opacity=".82"/>
  <circle cx="623" cy="205" r="43" fill="hsl(104.8 49% 57%)" opacity=".84"/>
  <text x="55" y="435" fill="hsl(42.8 28% 12%)" font-family="system-ui,sans-serif" font-size="38" font-weight="900">NEXT CITY 미래도시 전시</text>
  <text x="55" y="462" fill="hsl(42.8 28% 12%)" fill-opacity=".62" font-family="ui-monospace,monospace" font-size="12">glass / timeline / documents</text>
</svg>