<?xml version="1.0" encoding="UTF-8"?>
<svg xmlns="http://www.w3.org/2000/svg" viewBox="0 0 800 500" role="img" aria-labelledby="title desc">
  <title id="title">PHONEME 어학원 디자인 미리보기</title>
  <desc id="desc">terminal 레이아웃, drawer 히어로, 어학원 홈페이지 디자인.</desc>
  <rect width="800" height="500" fill="hsl(321.7 26% 13%)"/>
  <rect x="22" y="22" width="756" height="456" fill="hsl(353.7 22% 88%)" stroke="hsl(151.7 28% 10%)" stroke-width="3"/>
  <rect x="22" y="22" width="756" height="48" fill="hsl(151.7 28% 10%)"/>
  <circle cx="48" cy="46" r="7" fill="hsl(79.7 68% 52%)"/>
  <text x="70" y="52" fill="hsl(353.7 22% 88%)" font-family="system-ui,sans-serif" font-size="14" font-weight="800">WORLD 032 · 어학원</text>
  <line x1="38" y1="122" x2="656" y2="122" stroke="hsl(151.7 28% 10%)" stroke-opacity=".34" stroke-width="3"/><line x1="72" y1="164" x2="625" y2="164" stroke="hsl(151.7 28% 10%)" stroke-opacity=".18" stroke-width="1"/><line x1="38" y1="206" x2="594" y2="206" stroke="hsl(151.7 28% 10%)" stroke-opacity=".34" stroke-width="1"/><line x1="72" y1="248" x2="563" y2="248" stroke="hsl(151.7 28% 10%)" stroke-opacity=".18" stroke-width="3"/><line x1="38" y1="290" x2="692" y2="290" stroke="hsl(151.7 28% 10%)" stroke-opacity=".34" stroke-width="1"/><line x1="72" y1="332" x2="661" y2="332" stroke="hsl(151.7 28% 10%)" stroke-opacity=".18" stroke-width="1"/><line x1="38" y1="374" x2="630" y2="374" stroke="hsl(151.7 28% 10%)" stroke-opacity=".34" stroke-width="3"/><line x1="72" y1="416" x2="599" y2="416" stroke="hsl(151.7 28% 10%)" stroke-opacity=".18" stroke-width="1"/><line x1="38" y1="458" x2="568" y2="458" stroke="hsl(151.7 28% 10%)" stroke-opacity=".34" stroke-width="1"/>
  <rect x="140" y="319" width="158" height="20" rx="0" fill="hsl(79.7 68% 52%)" opacity=".94"/><rect x="229" y="380" width="201" height="49" rx="0" fill="hsl(213.7 55% 59%)" opacity=".94"/><rect x="318" y="441" width="94" height="16" rx="0" fill="hsl(353.7 22% 88%)" opacity=".72"/><rect x="407" y="142" width="137" height="45" rx="0" fill="hsl(79.7 68% 52%)" opacity=".94"/><rect x="496" y="203" width="180" height="74" rx="0" fill="hsl(213.7 55% 59%)" opacity=".94"/><rect x="85" y="264" width="73" height="41" rx="0" fill="hsl(353.7 22% 88%)" opacity=".72"/><rect x="174" y="325" width="116" height="70" rx="0" fill="hsl(79.7 68% 52%)" opacity=".94"/><rect x="263" y="386" width="159" height="37" rx="0" fill="hsl(213.7 55% 59%)" opacity=".94"/>
  <circle cx="604" cy="186" r="78" fill="none" stroke="hsl(79.7 68% 52%)" stroke-width="18" opacity=".82"/>
  <circle cx="604" cy="186" r="43" fill="hsl(213.7 55% 59%)" opacity=".84"/>
  <text x="55" y="435" fill="hsl(151.7 28% 10%)" font-family="system-ui,sans-serif" font-size="38" font-weight="900">PHONEME 어학원</text>
  <text x="55" y="462" fill="hsl(151.7 28% 10%)" fill-opacity=".62" font-family="ui-monospace,monospace" font-size="12">terminal / drawer / light</text>
</svg>