<?xml version="1.0" encoding="UTF-8"?>
<svg xmlns="http://www.w3.org/2000/svg" viewBox="0 0 800 500" role="img" aria-labelledby="title desc">
  <title id="title">RIDGELINE 캠핑장 디자인 미리보기</title>
  <desc id="desc">floorplan 레이아웃, timeline 히어로, 캠핑장 홈페이지 디자인.</desc>
  <rect width="800" height="500" fill="hsl(146.0 26% 15%)"/>
  <rect x="22" y="22" width="756" height="456" fill="hsl(178.0 22% 85%)" stroke="hsl(336.0 28% 11%)" stroke-width="3"/>
  <rect x="22" y="22" width="756" height="48" fill="hsl(336.0 28% 11%)"/>
  <circle cx="48" cy="46" r="7" fill="hsl(264.0 64% 53%)"/>
  <text x="70" y="52" fill="hsl(178.0 22% 85%)" font-family="system-ui,sans-serif" font-size="14" font-weight="800">WORLD 062 · 캠핑장</text>
  <line x1="38" y1="122" x2="626" y2="122" stroke="hsl(336.0 28% 11%)" stroke-opacity=".34" stroke-width="3"/><line x1="72" y1="164" x2="595" y2="164" stroke="hsl(336.0 28% 11%)" stroke-opacity=".18" stroke-width="1"/><line x1="38" y1="206" x2="564" y2="206" stroke="hsl(336.0 28% 11%)" stroke-opacity=".34" stroke-width="1"/><line x1="72" y1="248" x2="693" y2="248" stroke="hsl(336.0 28% 11%)" stroke-opacity=".18" stroke-width="3"/><line x1="38" y1="290" x2="662" y2="290" stroke="hsl(336.0 28% 11%)" stroke-opacity=".34" stroke-width="1"/><line x1="72" y1="332" x2="631" y2="332" stroke="hsl(336.0 28% 11%)" stroke-opacity=".18" stroke-width="1"/><line x1="38" y1="374" x2="600" y2="374" stroke="hsl(336.0 28% 11%)" stroke-opacity=".34" stroke-width="3"/><line x1="72" y1="416" x2="569" y2="416" stroke="hsl(336.0 28% 11%)" stroke-opacity=".18" stroke-width="1"/><line x1="38" y1="458" x2="698" y2="458" stroke="hsl(336.0 28% 11%)" stroke-opacity=".34" stroke-width="1"/>
  <rect x="50" y="349" width="68" height="16" rx="8" fill="hsl(264.0 64% 53%)" opacity=".94"/><rect x="139" y="410" width="111" height="45" rx="22.5" fill="hsl(38.0 52% 58%)" opacity=".94"/><rect x="228" y="111" width="154" height="74" rx="37" fill="hsl(178.0 22% 85%)" opacity=".72"/><rect x="317" y="172" width="197" height="41" rx="20.5" fill="hsl(264.0 64% 53%)" opacity=".94"/><rect x="406" y="233" width="90" height="70" rx="35" fill="hsl(38.0 52% 58%)" opacity=".94"/><rect x="495" y="294" width="133" height="37" rx="18.5" fill="hsl(178.0 22% 85%)" opacity=".72"/><rect x="84" y="355" width="176" height="66" rx="33" fill="hsl(264.0 64% 53%)" opacity=".94"/><rect x="173" y="416" width="69" height="33" rx="16.5" fill="hsl(38.0 52% 58%)" opacity=".94"/>
  <circle cx="634" cy="216" r="78" fill="none" stroke="hsl(264.0 64% 53%)" stroke-width="18" opacity=".82"/>
  <circle cx="634" cy="216" r="43" fill="hsl(38.0 52% 58%)" opacity=".84"/>
  <text x="55" y="435" fill="hsl(336.0 28% 11%)" font-family="system-ui,sans-serif" font-size="38" font-weight="900">RIDGELINE 캠핑장</text>
  <text x="55" y="462" fill="hsl(336.0 28% 11%)" fill-opacity=".62" font-family="ui-monospace,monospace" font-size="12">floorplan / timeline / documents</text>
</svg>