<?xml version="1.0" encoding="UTF-8"?>
<svg xmlns="http://www.w3.org/2000/svg" viewBox="0 0 800 500" role="img" aria-labelledby="title desc">
  <title id="title">STAMP 여행형 코워킹 디자인 미리보기</title>
  <desc id="desc">archive 레이아웃, book 히어로, 코워킹 홈페이지 디자인.</desc>
  <rect width="800" height="500" fill="hsl(166.1 26% 15%)"/>
  <rect x="22" y="22" width="756" height="456" fill="hsl(198.1 22% 85%)" stroke="hsl(356.1 28% 11%)" stroke-width="3"/>
  <rect x="22" y="22" width="756" height="48" fill="hsl(356.1 28% 11%)"/>
  <circle cx="48" cy="46" r="7" fill="hsl(284.1 64% 53%)"/>
  <text x="70" y="52" fill="hsl(198.1 22% 85%)" font-family="system-ui,sans-serif" font-size="14" font-weight="800">WORLD 070 · 코워킹</text>
  <line x1="38" y1="122" x2="650" y2="122" stroke="hsl(356.1 28% 11%)" stroke-opacity=".34" stroke-width="3"/><line x1="72" y1="164" x2="619" y2="164" stroke="hsl(356.1 28% 11%)" stroke-opacity=".18" stroke-width="1"/><line x1="38" y1="206" x2="588" y2="206" stroke="hsl(356.1 28% 11%)" stroke-opacity=".34" stroke-width="1"/><line x1="72" y1="248" x2="717" y2="248" stroke="hsl(356.1 28% 11%)" stroke-opacity=".18" stroke-width="3"/><line x1="38" y1="290" x2="686" y2="290" stroke="hsl(356.1 28% 11%)" stroke-opacity=".34" stroke-width="1"/><line x1="72" y1="332" x2="655" y2="332" stroke="hsl(356.1 28% 11%)" stroke-opacity=".18" stroke-width="1"/><line x1="38" y1="374" x2="624" y2="374" stroke="hsl(356.1 28% 11%)" stroke-opacity=".34" stroke-width="3"/><line x1="72" y1="416" x2="593" y2="416" stroke="hsl(356.1 28% 11%)" stroke-opacity=".18" stroke-width="1"/><line x1="38" y1="458" x2="562" y2="458" stroke="hsl(356.1 28% 11%)" stroke-opacity=".34" stroke-width="1"/>
  <rect x="326" y="405" width="94" height="48" rx="0" fill="hsl(284.1 64% 53%)" opacity=".94"/><rect x="415" y="106" width="137" height="77" rx="0" fill="hsl(58.1 52% 58%)" opacity=".94"/><rect x="504" y="167" width="180" height="44" rx="0" fill="hsl(198.1 22% 85%)" opacity=".72"/><rect x="93" y="228" width="73" height="73" rx="0" fill="hsl(284.1 64% 53%)" opacity=".94"/><rect x="182" y="289" width="116" height="40" rx="0" fill="hsl(58.1 52% 58%)" opacity=".94"/><rect x="271" y="350" width="159" height="69" rx="0" fill="hsl(198.1 22% 85%)" opacity=".72"/><rect x="360" y="411" width="202" height="36" rx="0" fill="hsl(284.1 64% 53%)" opacity=".94"/><rect x="449" y="112" width="95" height="65" rx="0" fill="hsl(58.1 52% 58%)" opacity=".94"/>
  <circle cx="600" cy="272" r="78" fill="none" stroke="hsl(284.1 64% 53%)" stroke-width="18" opacity=".82"/>
  <circle cx="600" cy="272" r="43" fill="hsl(58.1 52% 58%)" opacity=".84"/>
  <text x="55" y="435" fill="hsl(356.1 28% 11%)" font-family="system-ui,sans-serif" font-size="38" font-weight="900">STAMP 여행형 코워킹</text>
  <text x="55" y="462" fill="hsl(356.1 28% 11%)" fill-opacity=".62" font-family="ui-monospace,monospace" font-size="12">archive / book / glass</text>
</svg>