<?xml version="1.0" encoding="UTF-8"?><svg xmlns="http://www.w3.org/2000/svg" viewBox="0 0 1200 900" role="img" aria-labelledby="title description"><title id="title">FOLIA 꽃 작업실 아트 디렉션</title><description id="description">플라워 스튜디오의 atelier 시각 언어. 압화 표본, 리본 릴, 꽃잎 콜라주, 색상 카드 소재를 사용합니다.</description><defs>
    <linearGradient id="accent" x1="0" y1="0" x2="1" y2="1"><stop offset="0" stop-color="hsl(33.0 72% 51%)"/><stop offset="1" stop-color="hsl(167.0 58% 60%)"/></linearGradient>
    <linearGradient id="fade" x1="0" y1="0" x2="0" y2="1"><stop offset="0" stop-color="hsl(307.0 22% 91%)" stop-opacity=".03"/><stop offset="1" stop-color="hsl(105.0 28% 9%)" stop-opacity=".34"/></linearGradient>
    <filter id="shadow" x="-30%" y="-30%" width="160%" height="160%"><feDropShadow dx="18" dy="22" stdDeviation="18" flood-color="#000" flood-opacity=".28"/></filter>
    <filter id="grain" x="-20%" y="-20%" width="140%" height="140%"><feTurbulence type="fractalNoise" baseFrequency=".86" numOctaves="3" stitchTiles="stitch" result="noise"/><feColorMatrix in="noise" type="saturate" values="0"/><feComponentTransfer><feFuncA type="table" tableValues="0 .08"/></feComponentTransfer></filter>
    <pattern id="grid" width="48" height="48" patternUnits="userSpaceOnUse"><path d="M48 0H0V48" fill="none" stroke="hsl(307.0 22% 91%)" stroke-opacity=".14" stroke-width="1"/></pattern>
    <pattern id="dots" width="24" height="24" patternUnits="userSpaceOnUse"><circle cx="3" cy="3" r="2" fill="hsl(307.0 22% 91%)" fill-opacity=".15"/></pattern>
  </defs><rect width="1200" height="900" fill="hsl(275.0 26% 11%)"/><path d="M0 135h1200M0 842h1200" stroke="hsl(307.0 22% 91%)" stroke-opacity=".32" stroke-dasharray="9 12"/><g transform="translate(120 210) rotate(-5)" filter="url(#shadow)"><rect width="205" height="255" fill="hsl(307.0 22% 91%)" stroke="hsl(105.0 28% 9%)" stroke-width="3"/><rect x="18" y="18" width="169" height="130" fill="hsl(33.0 72% 51%)" opacity=".82"/><path d="M25 180h155M25 203h118M25 226h145" stroke="hsl(105.0 28% 9%)" stroke-width="5"/><text x="22" y="168" fill="hsl(105.0 28% 9%)" font-family="system-ui" font-size="14" font-weight="900">01 압화 표본</text></g><g transform="translate(335 325) rotate(4)" filter="url(#shadow)"><rect width="205" height="255" fill="hsl(307.0 22% 91%)" stroke="hsl(105.0 28% 9%)" stroke-width="3"/><rect x="18" y="18" width="169" height="130" fill="hsl(167.0 58% 60%)" opacity=".82"/><path d="M25 180h155M25 203h118M25 226h145" stroke="hsl(105.0 28% 9%)" stroke-width="5"/><text x="22" y="168" fill="hsl(105.0 28% 9%)" font-family="system-ui" font-size="14" font-weight="900">02 리본 릴</text></g><g transform="translate(550 210) rotate(-3)" filter="url(#shadow)"><rect width="205" height="255" fill="hsl(307.0 22% 91%)" stroke="hsl(105.0 28% 9%)" stroke-width="3"/><rect x="18" y="18" width="169" height="130" fill="hsl(33.0 72% 51%)" opacity=".82"/><path d="M25 180h155M25 203h118M25 226h145" stroke="hsl(105.0 28% 9%)" stroke-width="5"/><text x="22" y="168" fill="hsl(105.0 28% 9%)" font-family="system-ui" font-size="14" font-weight="900">03 꽃잎 콜라주</text></g><g transform="translate(765 325) rotate(6)" filter="url(#shadow)"><rect width="205" height="255" fill="hsl(307.0 22% 91%)" stroke="hsl(105.0 28% 9%)" stroke-width="3"/><rect x="18" y="18" width="169" height="130" fill="hsl(167.0 58% 60%)" opacity=".82"/><path d="M25 180h155M25 203h118M25 226h145" stroke="hsl(105.0 28% 9%)" stroke-width="5"/><text x="22" y="168" fill="hsl(105.0 28% 9%)" font-family="system-ui" font-size="14" font-weight="900">04 색상 카드</text></g><circle cx="1035" cy="155" r="95" fill="none" stroke="hsl(33.0 72% 51%)" stroke-width="24"/><text x="972" y="167" fill="hsl(307.0 22% 91%)" font-family="serif" font-size="34" font-weight="900">MADE</text><g fill="hsl(307.0 22% 91%)" font-family="system-ui, sans-serif">
    <text x="70" y="95" font-size="18" font-weight="900" letter-spacing="4">WORLD 003</text>
    <text x="70" y="760" font-size="62" font-weight="900" letter-spacing="-4">FOLIA 꽃 작업실</text>
    <text x="72" y="804" font-size="17" font-weight="700" opacity=".64">플라워 스튜디오 · map · mixer</text>
  </g><rect width="1200" height="900" filter="url(#grain)" opacity=".8"/></svg>