<?xml version="1.0" encoding="UTF-8"?><svg xmlns="http://www.w3.org/2000/svg" viewBox="0 0 1200 900" role="img" aria-labelledby="title description"><title id="title">LATTICE 데이터 분석 아트 디렉션</title><description id="description">데이터 분석의 interface 시각 언어. 데이터 조형, 필터 칩, 축 좌표, 분석 카드 소재를 사용합니다.</description><defs>
    <linearGradient id="accent" x1="0" y1="0" x2="1" y2="1"><stop offset="0" stop-color="hsl(249.7 68% 52%)"/><stop offset="1" stop-color="hsl(23.7 55% 59%)"/></linearGradient>
    <linearGradient id="fade" x1="0" y1="0" x2="0" y2="1"><stop offset="0" stop-color="hsl(163.7 22% 88%)" stop-opacity=".03"/><stop offset="1" stop-color="hsl(321.7 28% 10%)" stop-opacity=".34"/></linearGradient>
    <filter id="shadow" x="-30%" y="-30%" width="160%" height="160%"><feDropShadow dx="18" dy="22" stdDeviation="18" flood-color="#000" flood-opacity=".28"/></filter>
    <filter id="grain" x="-20%" y="-20%" width="140%" height="140%"><feTurbulence type="fractalNoise" baseFrequency=".86" numOctaves="3" stitchTiles="stitch" result="noise"/><feColorMatrix in="noise" type="saturate" values="0"/><feComponentTransfer><feFuncA type="table" tableValues="0 .08"/></feComponentTransfer></filter>
    <pattern id="grid" width="48" height="48" patternUnits="userSpaceOnUse"><path d="M48 0H0V48" fill="none" stroke="hsl(163.7 22% 88%)" stroke-opacity=".14" stroke-width="1"/></pattern>
    <pattern id="dots" width="24" height="24" patternUnits="userSpaceOnUse"><circle cx="3" cy="3" r="2" fill="hsl(163.7 22% 88%)" fill-opacity=".15"/></pattern>
  </defs><rect width="1200" height="900" fill="hsl(131.7 26% 13%)"/><rect width="1200" height="900" fill="url(#grid)"/><g filter="url(#shadow)"><rect x="72" y="120" width="720" height="560" rx="38" fill="hsl(163.7 22% 88%)" fill-opacity=".08" stroke="hsl(163.7 22% 88%)" stroke-opacity=".36"/><rect x="820" y="120" width="305" height="250" rx="28" fill="hsl(163.7 22% 88%)" fill-opacity=".1" stroke="hsl(249.7 68% 52%)" stroke-opacity=".7"/><rect x="820" y="400" width="305" height="280" rx="28" fill="hsl(163.7 22% 88%)" fill-opacity=".07" stroke="hsl(163.7 22% 88%)" stroke-opacity=".24"/></g><path d="M105 190 C300 100, 430 285, 846 175" fill="none" stroke="url(#accent)" stroke-width="2" opacity=".6"/><path d="M105 255 C300 165, 430 350, 983 240" fill="none" stroke="url(#accent)" stroke-width="3" opacity=".6"/><path d="M105 320 C300 230, 430 415, 1034 305" fill="none" stroke="url(#accent)" stroke-width="4" opacity=".6"/><path d="M105 385 C300 295, 430 480, 804 370" fill="none" stroke="url(#accent)" stroke-width="2" opacity=".6"/><path d="M105 450 C300 360, 430 545, 980 435" fill="none" stroke="url(#accent)" stroke-width="3" opacity=".6"/><path d="M105 515 C300 425, 430 610, 738 500" fill="none" stroke="url(#accent)" stroke-width="4" opacity=".6"/><path d="M105 580 C300 490, 430 675, 989 565" fill="none" stroke="url(#accent)" stroke-width="2" opacity=".6"/><path d="M105 645 C300 555, 430 740, 795 630" fill="none" stroke="url(#accent)" stroke-width="3" opacity=".6"/><circle cx="481" cy="645" r="21" fill="hsl(249.7 68% 52%)" opacity=".96"/><circle cx="429" cy="487" r="11" fill="hsl(23.7 55% 59%)" opacity=".72"/><circle cx="253" cy="236" r="18" fill="hsl(23.7 55% 59%)" opacity=".96"/><circle cx="817" cy="584" r="16" fill="hsl(249.7 68% 52%)" opacity=".72"/><circle cx="642" cy="643" r="17" fill="hsl(23.7 55% 59%)" opacity=".96"/><circle cx="789" cy="512" r="9" fill="hsl(23.7 55% 59%)" opacity=".72"/><circle cx="813" cy="436" r="18" fill="hsl(249.7 68% 52%)" opacity=".96"/><circle cx="516" cy="692" r="6" fill="hsl(23.7 55% 59%)" opacity=".72"/><circle cx="991" cy="535" r="14" fill="hsl(23.7 55% 59%)" opacity=".96"/><circle cx="365" cy="345" r="19" fill="hsl(249.7 68% 52%)" opacity=".72"/><circle cx="434" cy="460" r="18" fill="hsl(23.7 55% 59%)" opacity=".96"/><circle cx="333" cy="633" r="19" fill="hsl(23.7 55% 59%)" opacity=".72"/><circle cx="655" cy="554" r="6" fill="hsl(249.7 68% 52%)" opacity=".96"/><circle cx="875" cy="156" r="9" fill="hsl(23.7 55% 59%)" opacity=".72"/><circle cx="282" cy="418" r="7" fill="hsl(23.7 55% 59%)" opacity=".96"/><circle cx="605" cy="195" r="9" fill="hsl(249.7 68% 52%)" opacity=".72"/><text x="860" y="205" fill="hsl(249.7 68% 52%)" font-family="ui-monospace" font-size="56" font-weight="900">028</text><g fill="hsl(163.7 22% 88%)" font-family="system-ui, sans-serif">
    <text x="70" y="95" font-size="18" font-weight="900" letter-spacing="4">WORLD 028</text>
    <text x="70" y="760" font-size="62" font-weight="900" letter-spacing="-4">LATTICE 데이터 분석</text>
    <text x="72" y="804" font-size="17" font-weight="700" opacity=".64">데이터 분석 · map · filter</text>
  </g></svg>