<?xml version="1.0" encoding="UTF-8"?><svg xmlns="http://www.w3.org/2000/svg" viewBox="0 0 1200 900" role="img" aria-labelledby="title description"><title id="title">MIRROR 번역회사 아트 디렉션</title><description id="description">번역회사의 precision 시각 언어. 대칭 문단, 언어 토글, 문맥 주석, 용어 카드 소재를 사용합니다.</description><defs>
    <linearGradient id="accent" x1="0" y1="0" x2="1" y2="1"><stop offset="0" stop-color="hsl(20.6 72% 51%)"/><stop offset="1" stop-color="hsl(154.6 58% 60%)"/></linearGradient>
    <linearGradient id="fade" x1="0" y1="0" x2="0" y2="1"><stop offset="0" stop-color="hsl(294.6 22% 91%)" stop-opacity=".03"/><stop offset="1" stop-color="hsl(92.6 28% 9%)" stop-opacity=".34"/></linearGradient>
    <filter id="shadow" x="-30%" y="-30%" width="160%" height="160%"><feDropShadow dx="18" dy="22" stdDeviation="18" flood-color="#000" flood-opacity=".28"/></filter>
    <filter id="grain" x="-20%" y="-20%" width="140%" height="140%"><feTurbulence type="fractalNoise" baseFrequency=".86" numOctaves="3" stitchTiles="stitch" result="noise"/><feColorMatrix in="noise" type="saturate" values="0"/><feComponentTransfer><feFuncA type="table" tableValues="0 .08"/></feComponentTransfer></filter>
    <pattern id="grid" width="48" height="48" patternUnits="userSpaceOnUse"><path d="M48 0H0V48" fill="none" stroke="hsl(294.6 22% 91%)" stroke-opacity=".14" stroke-width="1"/></pattern>
    <pattern id="dots" width="24" height="24" patternUnits="userSpaceOnUse"><circle cx="3" cy="3" r="2" fill="hsl(294.6 22% 91%)" fill-opacity=".15"/></pattern>
  </defs><rect width="1200" height="900" fill="hsl(262.6 26% 11%)"/><rect x="34" y="34" width="1132" height="832" fill="url(#grid)" stroke="hsl(20.6 72% 51%)" stroke-width="3"/><g><path d="M105 170H765" stroke="hsl(294.6 22% 91%)" stroke-opacity=".42" stroke-width="2"/><path d="M105 161v18M765 161v18" stroke="hsl(20.6 72% 51%)" stroke-width="3"/><text x="783" y="176" fill="hsl(294.6 22% 91%)" font-family="ui-monospace" font-size="15">112 mm</text></g><g><path d="M105 252H937" stroke="hsl(294.6 22% 91%)" stroke-opacity=".42" stroke-width="2"/><path d="M105 243v18M937 243v18" stroke="hsl(20.6 72% 51%)" stroke-width="3"/><text x="955" y="258" fill="hsl(294.6 22% 91%)" font-family="ui-monospace" font-size="15">123 mm</text></g><g><path d="M105 334H911" stroke="hsl(294.6 22% 91%)" stroke-opacity=".42" stroke-width="2"/><path d="M105 325v18M911 325v18" stroke="hsl(20.6 72% 51%)" stroke-width="3"/><text x="929" y="340" fill="hsl(294.6 22% 91%)" font-family="ui-monospace" font-size="15">134 mm</text></g><g><path d="M105 416H920" stroke="hsl(294.6 22% 91%)" stroke-opacity=".42" stroke-width="2"/><path d="M105 407v18M920 407v18" stroke="hsl(20.6 72% 51%)" stroke-width="3"/><text x="938" y="422" fill="hsl(294.6 22% 91%)" font-family="ui-monospace" font-size="15">145 mm</text></g><g><path d="M105 498H788" stroke="hsl(294.6 22% 91%)" stroke-opacity=".42" stroke-width="2"/><path d="M105 489v18M788 489v18" stroke="hsl(20.6 72% 51%)" stroke-width="3"/><text x="806" y="504" fill="hsl(294.6 22% 91%)" font-family="ui-monospace" font-size="15">156 mm</text></g><g><path d="M105 580H863" stroke="hsl(294.6 22% 91%)" stroke-opacity=".42" stroke-width="2"/><path d="M105 571v18M863 571v18" stroke="hsl(20.6 72% 51%)" stroke-width="3"/><text x="881" y="586" fill="hsl(294.6 22% 91%)" font-family="ui-monospace" font-size="15">167 mm</text></g><g><path d="M105 662H789" stroke="hsl(294.6 22% 91%)" stroke-opacity=".42" stroke-width="2"/><path d="M105 653v18M789 653v18" stroke="hsl(20.6 72% 51%)" stroke-width="3"/><text x="807" y="668" fill="hsl(294.6 22% 91%)" font-family="ui-monospace" font-size="15">178 mm</text></g><g transform="translate(765 185)"><rect width="300" height="360" fill="none" stroke="hsl(154.6 58% 60%)" stroke-width="5"/><circle cx="150" cy="180" r="118" fill="none" stroke="hsl(294.6 22% 91%)" stroke-width="2"/><circle cx="150" cy="180" r="57" fill="hsl(20.6 72% 51%)" opacity=".76"/><path d="M0 180h300M150 0v360" stroke="hsl(294.6 22% 91%)" stroke-opacity=".38"/></g><g fill="hsl(294.6 22% 91%)" font-family="system-ui, sans-serif">
    <text x="70" y="95" font-size="18" font-weight="900" letter-spacing="4">WORLD 016</text>
    <text x="70" y="760" font-size="62" font-weight="900" letter-spacing="-4">MIRROR 번역회사</text>
    <text x="72" y="804" font-size="17" font-weight="700" opacity=".64">번역회사 · monolith · switcher</text>
  </g></svg>