<?xml version="1.0" encoding="UTF-8"?><svg xmlns="http://www.w3.org/2000/svg" viewBox="0 0 1200 900" role="img" aria-labelledby="title description"><title id="title">PEOPLE FIRST 채용회사 아트 디렉션</title><description id="description">채용회사의 precision 시각 언어. 인재 카드, 역량 태그, 팀 그래프, 대화 질문 소재를 사용합니다.</description><defs>
    <linearGradient id="accent" x1="0" y1="0" x2="1" y2="1"><stop offset="0" stop-color="hsl(243.1 72% 51%)"/><stop offset="1" stop-color="hsl(17.1 58% 60%)"/></linearGradient>
    <linearGradient id="fade" x1="0" y1="0" x2="0" y2="1"><stop offset="0" stop-color="hsl(157.1 22% 91%)" stop-opacity=".03"/><stop offset="1" stop-color="hsl(315.1 28% 9%)" stop-opacity=".34"/></linearGradient>
    <filter id="shadow" x="-30%" y="-30%" width="160%" height="160%"><feDropShadow dx="18" dy="22" stdDeviation="18" flood-color="#000" flood-opacity=".28"/></filter>
    <filter id="grain" x="-20%" y="-20%" width="140%" height="140%"><feTurbulence type="fractalNoise" baseFrequency=".86" numOctaves="3" stitchTiles="stitch" result="noise"/><feColorMatrix in="noise" type="saturate" values="0"/><feComponentTransfer><feFuncA type="table" tableValues="0 .08"/></feComponentTransfer></filter>
    <pattern id="grid" width="48" height="48" patternUnits="userSpaceOnUse"><path d="M48 0H0V48" fill="none" stroke="hsl(157.1 22% 91%)" stroke-opacity=".14" stroke-width="1"/></pattern>
    <pattern id="dots" width="24" height="24" patternUnits="userSpaceOnUse"><circle cx="3" cy="3" r="2" fill="hsl(157.1 22% 91%)" fill-opacity=".15"/></pattern>
  </defs><rect width="1200" height="900" fill="hsl(125.1 26% 11%)"/><rect x="34" y="34" width="1132" height="832" fill="url(#grid)" stroke="hsl(243.1 72% 51%)" stroke-width="3"/><g><path d="M105 170H900" stroke="hsl(157.1 22% 91%)" stroke-opacity=".42" stroke-width="2"/><path d="M105 161v18M900 161v18" stroke="hsl(243.1 72% 51%)" stroke-width="3"/><text x="918" y="176" fill="hsl(157.1 22% 91%)" font-family="ui-monospace" font-size="15">105 mm</text></g><g><path d="M105 252H784" stroke="hsl(157.1 22% 91%)" stroke-opacity=".42" stroke-width="2"/><path d="M105 243v18M784 243v18" stroke="hsl(243.1 72% 51%)" stroke-width="3"/><text x="802" y="258" fill="hsl(157.1 22% 91%)" font-family="ui-monospace" font-size="15">116 mm</text></g><g><path d="M105 334H929" stroke="hsl(157.1 22% 91%)" stroke-opacity=".42" stroke-width="2"/><path d="M105 325v18M929 325v18" stroke="hsl(243.1 72% 51%)" stroke-width="3"/><text x="947" y="340" fill="hsl(157.1 22% 91%)" font-family="ui-monospace" font-size="15">127 mm</text></g><g><path d="M105 416H924" stroke="hsl(157.1 22% 91%)" stroke-opacity=".42" stroke-width="2"/><path d="M105 407v18M924 407v18" stroke="hsl(243.1 72% 51%)" stroke-width="3"/><text x="942" y="422" fill="hsl(157.1 22% 91%)" font-family="ui-monospace" font-size="15">138 mm</text></g><g><path d="M105 498H759" stroke="hsl(157.1 22% 91%)" stroke-opacity=".42" stroke-width="2"/><path d="M105 489v18M759 489v18" stroke="hsl(243.1 72% 51%)" stroke-width="3"/><text x="777" y="504" fill="hsl(157.1 22% 91%)" font-family="ui-monospace" font-size="15">149 mm</text></g><g><path d="M105 580H898" stroke="hsl(157.1 22% 91%)" stroke-opacity=".42" stroke-width="2"/><path d="M105 571v18M898 571v18" stroke="hsl(243.1 72% 51%)" stroke-width="3"/><text x="916" y="586" fill="hsl(157.1 22% 91%)" font-family="ui-monospace" font-size="15">160 mm</text></g><g><path d="M105 662H748" stroke="hsl(157.1 22% 91%)" stroke-opacity=".42" stroke-width="2"/><path d="M105 653v18M748 653v18" stroke="hsl(243.1 72% 51%)" stroke-width="3"/><text x="766" y="668" fill="hsl(157.1 22% 91%)" font-family="ui-monospace" font-size="15">171 mm</text></g><g transform="translate(765 185)"><rect width="300" height="360" fill="none" stroke="hsl(17.1 58% 60%)" stroke-width="5"/><circle cx="150" cy="180" r="118" fill="none" stroke="hsl(157.1 22% 91%)" stroke-width="2"/><circle cx="150" cy="180" r="57" fill="hsl(243.1 72% 51%)" opacity=".76"/><path d="M0 180h300M150 0v360" stroke="hsl(157.1 22% 91%)" stroke-opacity=".38"/></g><g fill="hsl(157.1 22% 91%)" font-family="system-ui, sans-serif">
    <text x="70" y="95" font-size="18" font-weight="900" letter-spacing="4">WORLD 015</text>
    <text x="70" y="760" font-size="62" font-weight="900" letter-spacing="-4">PEOPLE FIRST 채용회사</text>
    <text x="72" y="804" font-size="17" font-weight="700" opacity=".64">채용회사 · masonry · filter</text>
  </g></svg>