<?xml version="1.0" encoding="UTF-8"?><svg xmlns="http://www.w3.org/2000/svg" viewBox="0 0 1200 900" role="img" aria-labelledby="title description"><title id="title">RIDGELINE 캠핑장 아트 디렉션</title><description id="description">캠핑장의 atlas 시각 언어. 등고선, 사이트 핀, 고도 표식, 장비 아이콘 소재를 사용합니다.</description><defs>
    <linearGradient id="accent" x1="0" y1="0" x2="1" y2="1"><stop offset="0" stop-color="hsl(264.0 64% 53%)"/><stop offset="1" stop-color="hsl(38.0 52% 58%)"/></linearGradient>
    <linearGradient id="fade" x1="0" y1="0" x2="0" y2="1"><stop offset="0" stop-color="hsl(178.0 22% 85%)" stop-opacity=".03"/><stop offset="1" stop-color="hsl(336.0 28% 11%)" stop-opacity=".34"/></linearGradient>
    <filter id="shadow" x="-30%" y="-30%" width="160%" height="160%"><feDropShadow dx="18" dy="22" stdDeviation="18" flood-color="#000" flood-opacity=".28"/></filter>
    <filter id="grain" x="-20%" y="-20%" width="140%" height="140%"><feTurbulence type="fractalNoise" baseFrequency=".86" numOctaves="3" stitchTiles="stitch" result="noise"/><feColorMatrix in="noise" type="saturate" values="0"/><feComponentTransfer><feFuncA type="table" tableValues="0 .08"/></feComponentTransfer></filter>
    <pattern id="grid" width="48" height="48" patternUnits="userSpaceOnUse"><path d="M48 0H0V48" fill="none" stroke="hsl(178.0 22% 85%)" stroke-opacity=".14" stroke-width="1"/></pattern>
    <pattern id="dots" width="24" height="24" patternUnits="userSpaceOnUse"><circle cx="3" cy="3" r="2" fill="hsl(178.0 22% 85%)" fill-opacity=".15"/></pattern>
  </defs><rect width="1200" height="900" fill="hsl(146.0 26% 15%)"/><path d="M45 480.3333333333333 C271 90,699 100,1155 404.75 C969 760,361 760,45 480.3333333333333Z" fill="none" stroke="hsl(264.0 64% 53%)" stroke-opacity=".58" stroke-width="3"/><path d="M69 470 C240 108,730 122,1131 412.5 C1000 750,330 745,69 470Z" fill="none" stroke="hsl(178.0 22% 85%)" stroke-opacity=".18" stroke-width="1"/><path d="M93 481.3333333333333 C274 126,696 144,1107 404 C966 740,364 730,93 481.3333333333333Z" fill="none" stroke="hsl(178.0 22% 85%)" stroke-opacity=".18" stroke-width="1"/><path d="M117 463 C219 144,751 166,1083 417.75 C1021 730,309 715,117 463Z" fill="none" stroke="hsl(264.0 64% 53%)" stroke-opacity=".58" stroke-width="3"/><path d="M141 481.3333333333333 C274 162,696 188,1059 404 C966 720,364 700,141 481.3333333333333Z" fill="none" stroke="hsl(178.0 22% 85%)" stroke-opacity=".18" stroke-width="1"/><path d="M165 469.6666666666667 C239 180,731 210,1035 412.75 C1001 710,329 685,165 469.6666666666667Z" fill="none" stroke="hsl(178.0 22% 85%)" stroke-opacity=".18" stroke-width="1"/><path d="M189 476 C258 198,712 232,1011 408 C982 700,348 670,189 476Z" fill="none" stroke="hsl(264.0 64% 53%)" stroke-opacity=".58" stroke-width="3"/><path d="M213 473 C249 216,721 254,987 410.25 C991 690,339 655,213 473Z" fill="none" stroke="hsl(178.0 22% 85%)" stroke-opacity=".18" stroke-width="1"/><path d="M237 481.3333333333333 C274 234,696 276,963 404 C966 680,364 640,237 481.3333333333333Z" fill="none" stroke="hsl(178.0 22% 85%)" stroke-opacity=".18" stroke-width="1"/><path d="M261 489.3333333333333 C298 252,672 298,939 398 C942 670,388 625,261 489.3333333333333Z" fill="none" stroke="hsl(264.0 64% 53%)" stroke-opacity=".58" stroke-width="3"/><path d="M285 462.6666666666667 C218 270,752 320,915 418 C1022 660,308 610,285 462.6666666666667Z" fill="none" stroke="hsl(178.0 22% 85%)" stroke-opacity=".18" stroke-width="1"/><path d="M309 467.3333333333333 C232 288,738 342,891 414.5 C1008 650,322 595,309 467.3333333333333Z" fill="none" stroke="hsl(178.0 22% 85%)" stroke-opacity=".18" stroke-width="1"/><path d="M333 488.3333333333333 C295 306,675 364,867 398.75 C945 640,385 580,333 488.3333333333333Z" fill="none" stroke="hsl(264.0 64% 53%)" stroke-opacity=".58" stroke-width="3"/><path d="M160 620 C340 180 660 730 1040 245" fill="none" stroke="hsl(38.0 52% 58%)" stroke-width="10" stroke-dasharray="17 18"/><g transform="translate(210 240)"><circle r="28" fill="hsl(264.0 64% 53%)"/><circle r="10" fill="hsl(336.0 28% 11%)"/><text x="42" y="6" fill="hsl(178.0 22% 85%)" font-family="system-ui" font-size="16" font-weight="800">등고선</text></g><g transform="translate(440 530)"><circle r="28" fill="hsl(264.0 64% 53%)"/><circle r="10" fill="hsl(336.0 28% 11%)"/><text x="42" y="6" fill="hsl(178.0 22% 85%)" font-family="system-ui" font-size="16" font-weight="800">사이트 핀</text></g><g transform="translate(670 240)"><circle r="28" fill="hsl(264.0 64% 53%)"/><circle r="10" fill="hsl(336.0 28% 11%)"/><text x="42" y="6" fill="hsl(178.0 22% 85%)" font-family="system-ui" font-size="16" font-weight="800">고도 표식</text></g><g transform="translate(900 530)"><circle r="28" fill="hsl(264.0 64% 53%)"/><circle r="10" fill="hsl(336.0 28% 11%)"/><text x="42" y="6" fill="hsl(178.0 22% 85%)" font-family="system-ui" font-size="16" font-weight="800">장비 아이콘</text></g><g fill="hsl(178.0 22% 85%)" font-family="system-ui, sans-serif">
    <text x="70" y="95" font-size="18" font-weight="900" letter-spacing="4">WORLD 062</text>
    <text x="70" y="760" font-size="62" font-weight="900" letter-spacing="-4">RIDGELINE 캠핑장</text>
    <text x="72" y="804" font-size="17" font-weight="700" opacity=".64">캠핑장 · floorplan · map</text>
  </g></svg>